# xmcd CD database file
#
# Track frame offsets:
#	150
#	38207
#	75727
#	96885
#	127030
#	152627
#
# Disc length: 2400 seconds
#
# Revision: 0
# Processed by: cddbd v1.5.2PL0 Copyright (c) Steve Scherf et al.
# Submitted via: CDex 1.70beta3
#
DISCID=44095e06
DTITLE=Donald Byrd - Byrd In Hand
DYEAR=1959
DGENRE=Jazz
TTITLE0=Witchcraft
TTITLE1=Here Am I
TTITLE2=Devil Whip
TTITLE3=Bronze Dance
TTITLE4=Clarion Calls
TTITLE5=The Injuns
EXTD=YEAR: 1959
EXTT0=
EXTT1=
EXTT2=
EXTT3=
EXTT4=
EXTT5=
PLAYORDER=
